HIERARCHY
ROOT Hips
{
	OFFSET 0.000000 0.000000 0.000000
	CHANNELS 6 Xposition Yposition Zposition Xrotation Yrotation Zrotation
	JOINT LeftUpLeg_virtual
	{
		OFFSET 0.000000 0.000000 0.000000
		CHANNELS 3 Xrotation Yrotation Zrotation
		JOINT LeftUpLeg
		{
			OFFSET 13.026900 -6.336304 -1.092800
			CHANNELS 3 Xrotation Yrotation Zrotation
			JOINT LeftLeg
			{
				OFFSET 0.524474 -46.096886 9.782700
				CHANNELS 3 Xrotation Yrotation Zrotation
				JOINT LeftFoot
				{
					OFFSET -0.524474 -53.427422 -12.948200
					CHANNELS 3 Xrotation Yrotation Zrotation
					JOINT LeftToeBase
					{
						OFFSET 0.192200 -14.009700 16.364100
						CHANNELS 3 Xrotation Yrotation Zrotation
						JOINT LeftToe_End
						{
							OFFSET -1.784700 -0.561700 9.474800
							CHANNELS 3 Xrotation Yrotation Zrotation
							End Site
							{
								OFFSET 0 0 0
							}
						}
					}
				}
			}
		}
	}
	JOINT RightUpLeg_virtual
	{
		OFFSET 0.000000 0.000000 0.000000
		CHANNELS 3 Xrotation Yrotation Zrotation
		JOINT RightUpLeg
		{
			OFFSET -12.883000 -6.336304 -1.092800
			CHANNELS 3 Xrotation Yrotation Zrotation
			JOINT RightLeg
			{
				OFFSET -0.524587 -46.096825 9.782800
				CHANNELS 3 Xrotation Yrotation Zrotation
				JOINT RightFoot
				{
					OFFSET 0.524587 -53.427383 -12.948300
					CHANNELS 3 Xrotation Yrotation Zrotation
					JOINT RightToeBase
					{
						OFFSET -0.192200 -14.009700 16.364100
						CHANNELS 3 Xrotation Yrotation Zrotation
						JOINT RightToe_End
						{
							OFFSET 1.784700 -0.561700 9.474800
							CHANNELS 3 Xrotation Yrotation Zrotation
							End Site
							{
								OFFSET 0 0 0
							}
						}
					}
				}
			}
		}
	}
	JOINT Spine_virtual
	{
		OFFSET 0.000000 0.000000 0.000000
		CHANNELS 3 Xrotation Yrotation Zrotation
		JOINT Spine
		{
			OFFSET 0.072000 7.257294 -0.789700
			CHANNELS 3 Xrotation Yrotation Zrotation
			JOINT Spine1
			{
				OFFSET 0.000000 12.508769 -0.658067
				CHANNELS 3 Xrotation Yrotation Zrotation
				JOINT Spine1_split
				{
					OFFSET 0.000000 12.508769 -0.658067
					CHANNELS 3 Xrotation Yrotation Zrotation
					JOINT Spine2
					{
						OFFSET 0.000000 12.508769 -0.658067
						CHANNELS 3 Xrotation Yrotation Zrotation
						JOINT Neck_virtual
						{
							OFFSET 0.000000 0.000000 0.000000
							CHANNELS 3 Xrotation Yrotation Zrotation
							JOINT Neck
							{
								OFFSET 0.000000 14.033295 7.520400
								CHANNELS 3 Xrotation Yrotation Zrotation
								JOINT Head
								{
									OFFSET 0.000000 8.198502 5.703100
									CHANNELS 3 Xrotation Yrotation Zrotation
									JOINT HeadTop_End
									{
										OFFSET 0.000000 17.760803 13.332701
										CHANNELS 3 Xrotation Yrotation Zrotation
										End Site
										{
											OFFSET 0 0 0
										}
									}
								}
							}
						}
						JOINT LeftShoulder_virtual
						{
							OFFSET 0.000000 0.000000 0.000000
							CHANNELS 3 Xrotation Yrotation Zrotation
							JOINT LeftShoulder
							{
								OFFSET 6.292450 5.785301 -0.669000
								CHANNELS 3 Xrotation Yrotation Zrotation
								JOINT LeftShoulder_split
								{
									OFFSET 6.292450 5.785301 -0.669000
									CHANNELS 3 Xrotation Yrotation Zrotation
									JOINT LeftArm
									{
										OFFSET 13.907140 -6.093903 1.965100
										CHANNELS 3 Xrotation Yrotation Zrotation
										JOINT LeftForeArm
										{
											OFFSET 34.140198 0.000000 0.000000
											CHANNELS 3 Xrotation Yrotation Zrotation
											JOINT LeftHand
											{
												OFFSET 40.960209 0.000000 0.000000
												CHANNELS 3 Xrotation Yrotation Zrotation
												End Site
												{
													OFFSET 0 0 0
												}
											}
										}
									}
								}
							}
						}
						JOINT RightShoulder_virtual
						{
							OFFSET 0.000000 0.000000 0.000000
							CHANNELS 3 Xrotation Yrotation Zrotation
							JOINT RightShoulder
							{
								OFFSET -6.292450 5.785301 -0.669000
								CHANNELS 3 Xrotation Yrotation Zrotation
								JOINT RightShoulder_split
								{
									OFFSET -6.292450 5.785301 -0.669000
									CHANNELS 3 Xrotation Yrotation Zrotation
									JOINT RightArm
									{
										OFFSET -13.907140 -6.093903 1.965100
										CHANNELS 3 Xrotation Yrotation Zrotation
										JOINT RightForeArm
										{
											OFFSET -34.140198 0.000000 0.000000
											CHANNELS 3 Xrotation Yrotation Zrotation
											JOINT RightHand
											{
												OFFSET -40.960209 0.000000 0.000000
												CHANNELS 3 Xrotation Yrotation Zrotation
												End Site
												{
													OFFSET 0 0 0
												}
											}
										}
									}
								}
							}
						}
					}
				}
			}
		}
	}
}
MOTION
Frames: 10
Frame Time: 0.03333333
-1.855760 90.615944 1.623394 0.000000 0.000000 0.000000 7.084521 -12.584006 3.831816 -55.362361 0.537383 25.805525 47.926949 -2.217720 5.997244 5.299355 0.850003 -23.260904 -0.902928 0.156695 -0.656759 0.000000 0.000000 0.000000 6.853962 -13.031604 4.230617 -30.900544 1.670666 -33.899974 49.926535 6.686005 -0.827645 -17.528700 -9.523019 28.766510 0.070871 0.732883 0.673911 0.000000 0.000000 0.000000 8.332023 -11.140296 4.092825 7.706420 0.754032 -1.006015 7.981615 2.117699 -0.895034 1.178112 0.348247 0.331520 0.000000 0.000000 0.000000 8.106400 1.187370 -0.456792 -1.508902 0.179959 -0.326199 -17.237389 -0.068402 2.670130 0.000000 0.000000 0.000000 7.151235 1.332314 -0.701684 2.519152 -12.982703 -9.225782 -4.412352 -4.232439 -1.766899 -22.887433 -3.770792 -43.631460 -179.381818 -57.015803 179.104909 0.000000 0.000000 0.000000 7.194260 1.318913 -0.516339 0.655781 8.913255 10.783914 1.011722 4.406913 -0.992470 5.920533 5.524131 40.911385 -178.344217 87.067754 177.060510 0.000000 0.000000 0.000000 
-1.786775 90.662766 1.710461 0.000000 0.000000 0.000000 7.163029 -12.510982 3.758628 -55.316008 0.451810 25.804019 47.940671 -2.151473 5.995989 5.167809 0.859453 -23.366851 -0.893639 0.146315 -0.636299 0.000000 0.000000 0.000000 6.882826 -12.972199 4.155553 -30.814976 1.613602 -33.851647 49.635418 6.615610 -0.802851 -17.505531 -9.542367 28.817022 0.049079 0.723186 0.658279 0.000000 0.000000 0.000000 8.407049 -11.060718 3.999658 7.670842 0.769454 -1.020732 8.028679 2.107553 -0.919618 1.197701 0.410556 0.301080 0.000000 0.000000 0.000000 8.097079 1.178928 -0.469800 -1.514995 0.146422 -0.302092 -17.200260 -0.003304 2.620480 0.000000 0.000000 0.000000 7.223465 1.322898 -0.690485 2.490247 -12.970694 -9.251246 -4.349823 -4.132286 -1.829113 -22.757294 -3.773937 -43.870240 -179.489940 -57.143767 178.978660 0.000000 0.000000 0.000000 7.232994 1.305385 -0.535545 0.694868 9.046390 10.837092 1.032906 4.473767 -0.988606 6.069207 5.403417 40.762367 -178.720915 87.025134 177.495525 0.000000 0.000000 0.000000 
-1.698815 90.684486 1.796093 0.000000 0.000000 0.000000 7.262033 -12.556273 3.651175 -55.287328 0.323178 25.856076 48.083917 -2.058634 5.954333 4.918505 0.932050 -23.480969 -0.881344 0.137233 -0.612327 0.000000 0.000000 0.000000 6.945740 -12.972555 4.043600 -30.787768 1.506313 -33.785790 49.272930 6.518161 -0.764452 -17.571558 -9.583892 28.807026 0.104189 0.715966 0.645529 0.000000 0.000000 0.000000 8.503856 -10.998163 3.863482 7.638740 0.816474 -1.060562 8.072414 2.128357 -0.935875 1.147436 0.364923 0.278945 0.000000 0.000000 0.000000 8.081704 1.193862 -0.481741 -1.473965 0.046371 -0.289557 -17.077008 -0.076397 2.576475 0.000000 0.000000 0.000000 7.284626 1.334502 -0.693944 2.456226 -12.951378 -9.333045 -4.293521 -4.147875 -1.778613 -22.752410 -3.657714 -44.376289 -179.648250 -57.302576 178.814475 0.000000 0.000000 0.000000 7.269198 1.323076 -0.544510 0.742532 9.240031 10.935307 1.006478 4.562249 -0.972755 6.464894 5.175682 40.483269 -178.493866 87.044347 177.336723 0.000000 0.000000 0.000000 
-1.595929 90.667603 1.866013 0.000000 0.000000 0.000000 7.360360 -12.704262 3.536351 -55.267852 0.190083 25.939083 48.332959 -1.941194 5.877728 4.586434 1.054802 -23.564568 -0.867371 0.130780 -0.587199 0.000000 0.000000 0.000000 7.040889 -13.039430 3.922500 -30.851913 1.378942 -33.728403 48.947690 6.423720 -0.715487 -17.660969 -9.633225 28.786126 0.182044 0.711424 0.640802 0.000000 0.000000 0.000000 8.597875 -10.938673 3.722343 7.610492 0.889245 -1.124354 8.107739 2.171113 -0.947334 1.069034 0.295077 0.279375 0.000000 0.000000 0.000000 8.061233 1.228702 -0.493558 -1.416380 -0.088573 -0.291637 -16.933007 -0.253763 2.525573 0.000000 0.000000 0.000000 7.326615 1.357949 -0.715413 2.429274 -12.933031 -9.425176 -4.263269 -4.264641 -1.672851 -22.881316 -3.446405 -44.978203 -179.825302 -57.428060 178.653201 0.000000 0.000000 0.000000 7.294621 1.362457 -0.546159 0.794612 9.462954 11.019711 0.902759 4.616282 -0.892589 7.006511 4.846141 40.092661 -177.621583 87.005197 176.532427 0.000000 0.000000 0.000000 
-1.500438 90.618500 1.912090 0.000000 0.000000 0.000000 7.456364 -12.899000 3.434807 -55.250794 0.076198 26.022698 48.646424 -1.803362 5.780451 4.212461 1.206640 -23.593324 -0.848699 0.128997 -0.562839 0.000000 0.000000 0.000000 7.157328 -13.140101 3.818408 -30.980567 1.271741 -33.698531 48.714972 6.365440 -0.668752 -17.746073 -9.683767 28.809735 0.185537 0.706844 0.648440 0.000000 0.000000 0.000000 8.686028 -10.867011 3.599452 7.586020 0.974342 -1.214859 8.135146 2.218687 -0.961735 1.020493 0.232330 0.320467 0.000000 0.000000 0.000000 8.039595 1.269025 -0.510355 -1.377664 -0.228650 -0.317323 -16.843050 -0.491673 2.463331 0.000000 0.000000 0.000000 7.354852 1.379117 -0.754773 2.417494 -12.939363 -9.488432 -4.258052 -4.414753 -1.589885 -23.099594 -3.165249 -45.497966 -179.982738 -57.471268 178.542333 0.000000 0.000000 0.000000 7.311722 1.408970 -0.546790 0.845764 9.687710 11.058207 0.729275 4.577939 -0.762146 7.580005 4.437681 39.633300 -176.290106 86.811868 175.259990 0.000000 0.000000 0.000000 
-1.422415 90.551620 1.900372 0.000000 0.000000 0.000000 7.562842 -13.092116 3.369155 -55.232588 -0.023804 26.077247 48.976619 -1.655235 5.684132 3.862636 1.351276 -23.572122 -0.830864 0.134399 -0.543423 0.000000 0.000000 0.000000 7.287981 -13.240929 3.744997 -31.128864 1.221614 -33.689416 48.603551 6.359904 -0.641994 -17.851645 -9.740733 28.866763 0.119246 0.701411 0.668183 0.000000 0.000000 0.000000 8.778034 -10.812251 3.517206 7.566033 1.057976 -1.323616 8.154647 2.252578 -0.987270 0.992184 0.169386 0.407033 0.000000 0.000000 0.000000 8.021303 1.307884 -0.536728 -1.370787 -0.354342 -0.366593 -16.811937 -0.737837 2.374631 0.000000 0.000000 0.000000 7.379583 1.391028 -0.810253 2.422970 -12.983352 -9.501509 -4.272106 -4.536857 -1.549921 -23.316451 -2.848789 -45.814245 179.896418 -57.386983 178.501680 0.000000 0.000000 0.000000 7.322589 1.450787 -0.551878 0.895575 9.880372 11.021751 0.502726 4.471633 -0.609624 8.096622 3.959323 39.186185 -175.105314 86.459390 174.129198 0.000000 0.000000 0.000000 
-1.395018 90.496552 1.856686 0.000000 0.000000 0.000000 7.651977 -13.245819 3.336200 -55.200435 -0.128757 26.102620 49.255639 -1.519321 5.613525 3.611205 1.443097 -23.549963 -0.813632 0.145567 -0.531635 0.000000 0.000000 0.000000 7.403117 -13.359272 3.711272 -31.260581 1.247305 -33.694396 48.606802 6.397995 -0.630480 -18.030272 -9.803729 28.885635 0.127602 0.696299 0.707441 0.000000 0.000000 0.000000 8.861026 -10.771408 3.471582 7.549945 1.136273 -1.443113 8.174774 2.271226 -1.022143 1.036034 0.141818 0.454035 0.000000 0.000000 0.000000 8.010780 1.339252 -0.568178 -1.387677 -0.454763 -0.441993 -16.809922 -0.975341 2.247852 0.000000 0.000000 0.000000 7.409145 1.394709 -0.870636 2.440284 -13.098840 -9.455326 -4.329498 -4.586774 -1.565301 -23.399432 -2.540820 -45.907091 179.837365 -57.137217 178.561253 0.000000 0.000000 0.000000 7.322616 1.482598 -0.561891 0.943436 10.036571 10.907538 0.268541 4.355773 -0.428093 8.480417 3.441055 38.836770 -174.443769 86.012326 173.529958 0.000000 0.000000 0.000000 
-1.406746 90.470001 1.763256 0.000000 0.000000 0.000000 7.700436 -13.352119 3.323690 -55.119855 -0.256020 26.089987 49.419864 -1.418991 5.583799 3.507740 1.448275 -23.577337 -0.816767 0.157054 -0.518062 0.000000 0.000000 0.000000 7.471196 -13.470738 3.701720 -31.365004 1.338262 -33.706229 48.684444 6.463403 -0.622945 -18.294081 -9.867367 28.823497 0.264532 0.692399 0.760173 0.000000 0.000000 0.000000 8.918260 -10.770547 3.455199 7.523802 1.209044 -1.554049 8.187781 2.279009 -1.055748 1.141316 0.130954 0.468812 0.000000 0.000000 0.000000 8.012178 1.363289 -0.595501 -1.388733 -0.535731 -0.538506 -16.778196 -1.228058 2.074134 0.000000 0.000000 0.000000 7.445788 1.403674 -0.920503 2.463430 -13.294544 -9.370038 -4.415133 -4.552154 -1.650204 -23.271904 -2.275407 -45.850227 179.861694 -56.730475 178.735518 0.000000 0.000000 0.000000 7.320904 1.509405 -0.573346 0.991670 10.152707 10.736445 0.034022 4.242625 -0.257080 8.696594 2.962892 38.681007 -174.363528 85.490063 173.529685 0.000000 0.000000 0.000000 
-1.451178 90.477066 1.624264 0.000000 0.000000 0.000000 7.679242 -13.433255 3.326603 -54.941393 -0.391480 26.048059 49.408199 -1.348738 5.593449 3.515328 1.367560 -23.643046 -0.835828 0.161279 -0.499766 0.000000 0.000000 0.000000 7.455956 -13.578574 3.711096 -31.430301 1.478545 -33.712673 48.803529 6.562433 -0.614590 -18.591799 -9.915584 28.709447 0.423260 0.690207 0.809117 0.000000 0.000000 0.000000 8.904579 -10.825878 3.462621 7.473433 1.282919 -1.622151 8.185958 2.297203 -1.070580 1.262179 0.100453 0.474527 0.000000 0.000000 0.000000 8.014505 1.397262 -0.604269 -1.334956 -0.586527 -0.648481 -16.637168 -1.507232 1.835079 0.000000 0.000000 0.000000 7.476869 1.435923 -0.944481 2.485285 -13.556800 -9.264628 -4.484151 -4.447242 -1.728607 -22.963639 -2.056517 -45.745390 179.957590 -56.183627 179.002032 0.000000 0.000000 0.000000 7.322183 1.548051 -0.576574 1.052687 10.210259 10.508924 -0.185430 4.188313 -0.119991 8.739707 2.529847 38.698653 -174.703808 84.894928 173.960301 0.000000 0.000000 0.000000 
-1.530234 90.516846 1.430305 0.000000 0.000000 0.000000 7.553277 -13.513830 3.348298 -54.612297 -0.485214 26.004110 49.188847 -1.300087 5.627216 3.567178 1.220675 -23.734177 -0.840225 0.154108 -0.478990 0.000000 0.000000 0.000000 7.315767 -13.727573 3.749056 -31.442670 1.641128 -33.731425 48.936410 6.703586 -0.603445 -18.872094 -9.918341 28.586182 0.496315 0.688926 0.840943 0.000000 0.000000 0.000000 8.754045 -10.951314 3.485364 7.381766 1.364183 -1.627662 8.163484 2.345545 -1.051325 1.299999 0.077344 0.466749 0.000000 0.000000 0.000000 7.998696 1.453043 -0.576502 -1.200435 -0.619526 -0.781027 -16.318186 -1.742747 1.512337 0.000000 0.000000 0.000000 7.485176 1.501878 -0.926150 2.495025 -13.850395 -9.146809 -4.513804 -4.316773 -1.797823 -22.525884 -1.855315 -45.680841 -179.901309 -55.535541 179.329567 0.000000 0.000000 0.000000 7.316839 1.612541 -0.550200 1.124369 10.212787 10.231023 -0.335014 4.148572 -0.053888 8.611978 2.125318 38.791424 -175.219747 84.186917 174.566699 0.000000 0.000000 0.000000 
